<?xml version="1.0" encoding="utf-8"?>
<!-- Generator: Adobe Illustrator 24.0.0, SVG Export Plug-In . SVG Version: 6.00 Build 0)  -->
<svg version="1.1" id="Layer_1" xmlns="http://www.w3.org/2000/svg" xmlns:xlink="http://www.w3.org/1999/xlink" x="0px" y="0px"
	 viewBox="0 0 265.5 240.7" style="enable-background:new 0 0 265.5 240.7;" xml:space="preserve">
<style type="text/css">
	.st0{fill:#D8D8D8;}
	.st1{fill:#7CA5A3;}
	.st2{fill:#FEFEFE;}
	.st3{fill:#079995;}
</style>
<g>
	<path class="st0" d="M117.9,205.3c0.1-12,0.1-23.9,0.3-35.9c0-1.7-0.8-2.4-2.2-3c-6.8-3-12.7-7.4-17.9-12.7
		c-1.4-1.4-2.8-2.1-4.8-2.4c-25.8-3.6-48.6-13.3-66.4-33C14.5,104.7,6.6,88.8,2.2,71.1c-3.7-14.9,7.6-29.2,23-29.6
		c9.6-0.2,19.2,0,28.8-0.1c1.1,0,3,0.8,3.1-0.9c0.1-1.9,1.3-4.6-1-5.7c-4.1-2-4.8-5.3-4.7-9.3c0.1-4,0-8,0-12c0-6.6,2.4-9.1,9-9.1
		c11.8,0,23.7,0.2,35.5,0.2c36.4,0,72.8,0,109.2,0c8.5,0,10.3,1.8,10.3,10.3c0,4.1,0,8.2,0,12.3c0,2.9-0.9,5.6-3.7,6.8
		c-3.2,1.4-1.8,4.1-1.8,6.2c0,2.4,2.4,1.2,3.6,1.2c9,0.1,18,0,26.9,0.1c17.6,0.1,28.8,15,23.9,31.8c-13.3,45.5-43.7,71.4-90.6,78
		c-1.8,0.3-3.2,0.9-4.5,2.2c-5.3,5.4-11.2,9.9-18.2,12.9c-1.4,0.6-2.2,1.4-2.1,3c0.1,12.1,0.2,24.2,0.2,36.3c-0.6-0.1-1.3,0-1.8-0.2
		c-9-2.9-17.9-3.2-26.9-0.1C119.6,205.7,118.7,205.7,117.9,205.3z M181.5,138.4c8.2-1.3,14.9-3.7,21.5-6.7
		c27.5-12.4,43.2-34.4,50.8-62.8c2.3-8.6-3.8-16.1-12.7-16.2c-9.7-0.1-19.5,0-29.2-0.1c-2.5,0-3.3,0.6-3.6,3.2
		c-2.1,19.5-6.5,38.5-13.7,56.8C191.2,121.4,186.9,129.7,181.5,138.4z M85.4,138.3c-1.9-3.3-3.4-5.9-4.9-8.6
		c-12.4-23-18.7-47.9-21.7-73.7c-0.3-2.4-0.7-3.5-3.4-3.4c-9.8,0.2-19.7,0-29.5,0.1c-8.9,0.1-14.9,7.8-12.5,16.4
		c7.8,28.7,23.7,50.8,51.6,63C71.2,134.9,77.8,137.2,85.4,138.3z"/>
	<path class="st1" d="M117.9,205.3c0.8,0.4,1.7,0.4,2.5,0.1c9-3.1,17.9-2.8,26.9,0.1c0.6,0.2,1.2,0.1,1.8,0.2
		c16.2,6.9,28.6,21.8,34.9,34c-33.7,0-67.3,0-101.3,0c3.1-6,7-11.2,11.3-16.1c6.3-7.2,13.5-13.2,22.4-17.1
		C117,206.2,117.4,205.7,117.9,205.3z"/>
	<path class="st2" d="M181.5,138.4c5.4-8.8,9.6-17,13.1-25.7c7.2-18.3,11.6-37.3,13.7-56.8c0.3-2.6,1.1-3.3,3.6-3.2
		c9.7,0.1,19.5,0,29.2,0.1c8.9,0.1,15,7.6,12.7,16.2c-7.6,28.4-23.3,50.4-50.8,62.8C196.5,134.7,189.7,137.1,181.5,138.4z"/>
	<path class="st2" d="M85.4,138.3c-7.6-1.1-14.1-3.4-20.5-6.2C37,119.9,21,97.8,13.3,69.2c-2.3-8.6,3.7-16.3,12.5-16.4
		c9.8-0.1,19.7,0.1,29.5-0.1c2.7,0,3.2,1,3.4,3.4c3,25.8,9.3,50.6,21.7,73.7C81.9,132.5,83.5,135.1,85.4,138.3z"/>
</g>
<g>
	<path class="st3" d="M110.4,121.8c-2.1,0.6-4.2,1.1-6.2,1.6c-1.8,0.5-3.7,1-5.5,1.5c-0.8,0.2-1.4,0.2-1.9-0.5
		c-0.5-0.6-0.3-1.3,0.1-1.9c2.5-4.3,5-8.6,7.4-12.9c0.2-0.3,0.3-0.6,0.5-0.9c-0.6-0.5-1.2-0.9-1.7-1.5c-1.6-1.8-1.6-3.9-1.4-6.1
		c0.1-1.2,0.3-2.5,0.4-3.7c0.2-1.8-0.2-3.4-1.5-4.8c-1.3-1.4-2.6-2.7-3.7-4.2c-2-2.7-2-5.1,0-7.8c0.7-1,1.6-2.1,2.5-2.9
		c2.5-2.2,3.2-4.8,2.5-8c-0.3-1.4-0.3-2.8-0.3-4.2c0.1-2.5,1.3-4.4,3.6-5.3c1.5-0.6,3.1-0.9,4.7-1.3c0.6-0.2,1.3-0.3,1.9-0.4
		c1.6-0.3,2.8-1.2,3.6-2.6c0.8-1.4,1.6-2.9,2.5-4.3c0.7-1,1.5-2,2.5-2.7c1.8-1.4,3.9-1.1,5.9-0.3c1.5,0.6,2.9,1.2,4.4,1.9
		c1.8,0.9,3.7,0.9,5.5,0c1.4-0.6,2.7-1.3,4.1-1.8c3.9-1.5,6.4-0.7,8.7,2.7c0.9,1.4,1.7,2.8,2.4,4.2c0.9,1.5,2.1,2.5,3.9,2.8
		c1.9,0.4,3.7,0.7,5.6,1.3c3.2,1,4.6,2.9,4.5,6.3c0,1.9-0.3,3.9-0.5,5.8c-0.2,1.7,0.3,3.1,1.4,4.4c1.1,1.2,2.3,2.4,3.3,3.7
		c2.6,3.2,2.5,5.9,0,9.1c-0.7,0.9-1.5,1.8-2.3,2.6c-2.3,2-2.8,4.4-2.3,7.3c0.2,1.1,0.3,2.2,0.3,3.3c0.2,2.8-0.6,5.1-3.2,6.5
		c0.2,0.3,0.3,0.6,0.5,0.9c2.5,4.2,4.9,8.5,7.4,12.7c0.4,0.7,0.7,1.4,0.2,2.2c-0.6,0.7-1.3,0.6-2.1,0.4c-3.6-1-7.2-1.9-10.7-2.9
		c-0.2-0.1-0.4-0.1-0.7-0.2c-0.3,0.9-0.5,1.9-0.8,2.8c-0.8,2.9-1.5,5.8-2.3,8.7c0,0.1-0.1,0.2-0.1,0.3c-0.2,0.8-0.6,1.3-1.4,1.4
		c-0.8,0.1-1.3-0.4-1.6-1.1c-2.3-4.1-4.7-8.2-7.1-12.2c-0.2-0.4-0.7-0.7-1.1-0.8c-1.1-0.5-2.3-0.8-3.5-1.3c-0.9-0.4-1.8-0.8-2.6-1.2
		c-1.7-0.8-3.4-0.8-5.1,0c-1.6,0.7-3.1,1.6-4.8,2c-1.7,0.4-2.6,1.4-3.3,2.8c-2,3.5-4,7-6.1,10.6c-0.4,0.7-0.8,1.3-1.7,1.2
		c-0.9-0.1-1.2-0.8-1.4-1.6c-0.9-3.5-1.9-6.9-2.8-10.4C110.7,122.6,110.6,122.2,110.4,121.8z M105.2,72.8c0.2,1.8-0.9,4-2.6,5.9
		c-1,1.1-2,2.1-2.9,3.3c-1.6,2-1.6,3.2,0,5.2c1,1.3,2.2,2.4,3.2,3.6c1.7,1.9,2.5,4.1,2.2,6.7c-0.2,2-0.4,3.9-0.5,5.9
		c-0.1,1.4,0.6,2.3,1.9,2.8c1.2,0.4,2.4,0.8,3.6,0.9c4.2,0.5,7.2,2.5,9,6.4c0.4,1,1.1,1.9,1.7,2.8c1.2,1.7,2.3,2.1,4.3,1.4
		c1.3-0.5,2.6-1.1,3.9-1.7c3-1.5,6-1.5,9.1,0c1.3,0.6,2.6,1.2,3.9,1.7c1.9,0.7,3,0.4,4.2-1.3c0.8-1.2,1.6-2.5,2.2-3.8
		c1.6-3.1,4.1-4.8,7.6-5.3c1.5-0.2,3-0.6,4.4-1.1c1.4-0.4,2.1-1.4,2-2.8c-0.1-1.4-0.1-2.9-0.3-4.3c-0.6-3.5,0.1-6.6,2.8-9.1
		c0.6-0.6,1.2-1.2,1.7-1.8c0.5-0.6,1-1.2,1.4-1.8c0.8-1.1,0.8-2.3,0-3.5c-0.4-0.6-0.9-1.3-1.4-1.8c-0.8-1-1.7-1.9-2.6-2.8
		c-1.7-1.9-2.3-4.1-2.1-6.6c0.2-1.6,0.4-3.2,0.5-4.8c0.1-2.6-0.5-3.4-3.1-4.1c-1.3-0.4-2.7-0.6-4-0.8c-3-0.5-5.3-2.1-6.7-4.8
		c-0.6-1.2-1.3-2.4-2-3.6c-1.5-2.4-2.6-2.7-5.2-1.7c-1.5,0.6-2.9,1.3-4.4,1.9c-2.3,1-4.7,1-7,0c-1.1-0.5-2.3-1.1-3.4-1.5
		c-0.8-0.3-1.7-0.6-2.6-0.9c-0.9-0.3-1.8,0-2.4,0.7c-0.6,0.7-1.2,1.5-1.7,2.3c-0.7,1.1-1.2,2.2-1.9,3.2c-1.3,2.3-3.2,3.6-5.7,4.2
		c-1.7,0.4-3.4,0.7-5,1.1c-2.2,0.6-2.9,1.5-2.8,3.8C104.7,68.2,104.9,70.1,105.2,72.8z M120.9,120.4c-1.8-1.1-2.8-2.6-3.7-4.3
		c-0.6-1.1-1.2-2.2-1.9-3.2c-0.7-1.2-1.8-2-3.1-2.3c-1.2-0.3-2.4-0.5-3.6-0.8c-0.6-0.2-0.9,0-1.3,0.5c-1.9,3.3-3.8,6.7-5.7,10
		c-0.1,0.2-0.2,0.5-0.4,0.8c3.3-0.9,6.4-1.7,9.4-2.5c1.4-0.4,2,0,2.4,1.4c0.6,2.3,1.3,4.7,1.9,7c0.2,0.8,0.4,1.5,0.7,2.5
		C117.4,126.3,119.1,123.4,120.9,120.4z M165.8,121.2c-2.2-3.8-4.3-7.5-6.4-11.1c-0.1-0.2-0.5-0.3-0.7-0.3c-1.3,0.2-2.5,0.5-3.8,0.8
		c-1.5,0.3-2.6,1.2-3.4,2.5c-0.3,0.6-0.7,1.2-1,1.8c-1.2,2.1-2.3,4.3-4.5,5.6c1.7,3,3.5,6,5.3,9.1c0.2-0.5,0.2-0.8,0.3-1.1
		c0.7-2.8,1.5-5.6,2.2-8.4c0.4-1.4,1-1.7,2.4-1.4c0.2,0,0.4,0.1,0.5,0.1C159.8,119.5,162.7,120.3,165.8,121.2z"/>
	<path class="st3" d="M133.5,107.9c-12.9,0-23.4-10.4-23.4-23.3c0-12.8,10.4-23.4,23.3-23.4c12.9,0,23.5,10.5,23.5,23.4
		C156.9,97.3,146.4,107.8,133.5,107.9z M133.5,104.8c11.2,0,20.3-9.1,20.4-20.3c0-11.2-9.1-20.4-20.4-20.4
		c-11.2,0-20.3,9.1-20.4,20.3C113.1,95.7,122.2,104.8,133.5,104.8z"/>
	<polygon class="st3" points="133.1,74 136.1,80.1 142.9,81.1 138,86 139.2,92.7 133.1,89.5 127,92.7 128.1,86 123.2,81.1 130,80.1 
			"/>
</g>
</svg>
